<svg width="422" height="222" viewBox="0 0 422 222" fill="none" xmlns="http://www.w3.org/2000/svg">
<path d="M60 222H4.24683e-07L73.8 -2.86102e-06H151.5L225.3 222H165.3L153.6 184.8H71.7L60 222ZM112.8 53.7L87 135.6H138.3L112.8 53.7ZM389.899 222H363.275V201.648H385.547C388.021 201.648 390.069 201.264 391.691 200.496C393.312 199.643 394.507 198.491 395.275 197.04C396.128 195.589 396.555 193.883 396.555 191.92C396.555 189.957 396.128 188.293 395.275 186.928C394.507 185.477 393.312 184.368 391.691 183.6C390.069 182.832 388.021 182.448 385.547 182.448H363.275V164.144H383.755C385.973 164.144 387.765 163.803 389.131 163.12C390.581 162.437 391.648 161.499 392.331 160.304C393.099 159.024 393.483 157.531 393.483 155.824C393.483 154.117 393.099 152.667 392.331 151.472C391.648 150.277 390.581 149.339 389.131 148.656C387.765 147.973 385.973 147.632 383.755 147.632H363.275V127.28H388.875C395.104 127.28 400.309 128.304 404.491 130.352C408.672 132.4 411.829 135.173 413.963 138.672C416.096 142.171 417.163 146.096 417.163 150.448C417.163 154.203 416.48 157.445 415.115 160.176C413.749 162.907 411.915 165.125 409.611 166.832C407.392 168.539 405.003 169.776 402.443 170.544V171.696C404.917 172.208 407.605 173.317 410.507 175.024C413.493 176.731 416.011 179.205 418.059 182.448C420.192 185.605 421.259 189.744 421.259 194.864C421.259 199.387 420.192 203.739 418.059 207.92C415.925 212.016 412.555 215.387 407.947 218.032C403.424 220.677 397.408 222 389.899 222ZM364.811 222H340.235V127.28H364.811V222Z" fill="#1E2E4F"/>
<path d="M259.465 222H233.865L265.353 127.28H298.505L329.993 222H304.393L299.401 206.128H264.457L259.465 222ZM281.993 150.192L270.985 185.136H292.873L281.993 150.192Z" fill="#0057FF"/>
</svg>
