<svg width="78" height="42" viewBox="0 0 78 42" fill="none" xmlns="http://www.w3.org/2000/svg">
<rect width="42" height="42" fill="#0057FF"/>
<path d="M12.544 27H9.392L6.448 15.16H8.912L11.184 24.488L10.816 24.472L13.2 15.16H15.712L18.096 24.472L17.728 24.488L19.984 15.16H22.464L19.504 27H16.368L14.272 18.712H14.64L12.544 27ZM26.2663 27H23.8343V18.52H26.2503V19.752H26.3303C26.4263 19.528 26.5596 19.3093 26.7303 19.096C26.9116 18.8827 27.1516 18.7067 27.4503 18.568C27.7489 18.4293 28.1276 18.36 28.5863 18.36C28.8103 18.36 28.9916 18.376 29.1303 18.408C29.2796 18.4293 29.3543 18.44 29.3543 18.44V20.84C29.3543 20.84 29.2743 20.824 29.1143 20.792C28.9649 20.76 28.7676 20.744 28.5223 20.744C28.1489 20.744 27.8183 20.7973 27.5303 20.904C27.2529 21 27.0183 21.1547 26.8263 21.368C26.6343 21.5813 26.4903 21.8533 26.3943 22.184C26.3089 22.5147 26.2663 22.9093 26.2663 23.368V27ZM33.5684 27H31.1364V18.52H33.5684V27ZM32.3524 17.368C31.9364 17.368 31.5897 17.2347 31.3124 16.968C31.0457 16.6907 30.9124 16.3653 30.9124 15.992C30.9124 15.5973 31.0457 15.2667 31.3124 15C31.5897 14.7227 31.9364 14.584 32.3524 14.584C32.7577 14.584 33.099 14.7227 33.3764 15C33.6537 15.2667 33.7924 15.5973 33.7924 15.992C33.7924 16.3653 33.6537 16.6907 33.3764 16.968C33.099 17.2347 32.7577 17.368 32.3524 17.368ZM39.5988 27.16C39.0654 27.16 38.6228 27.096 38.2708 26.968C37.9188 26.84 37.6308 26.6693 37.4068 26.456C37.1934 26.2427 37.0281 26.0027 36.9108 25.736C36.7934 25.4693 36.7134 25.208 36.6708 24.952C36.6388 24.6853 36.6228 24.4347 36.6228 24.2V16.424H39.0548V24.136C39.0548 24.488 39.1454 24.76 39.3268 24.952C39.5188 25.144 39.8334 25.24 40.2708 25.24C40.4628 25.24 40.6388 25.224 40.7988 25.192C40.9588 25.16 41.0388 25.144 41.0388 25.144V27.016C41.0388 27.016 40.8948 27.0373 40.6068 27.08C40.3188 27.1333 39.9828 27.16 39.5988 27.16ZM40.8628 20.456H35.1828V18.52H40.8628V20.456Z" fill="white"/>
<path d="M46.2784 18.36C46.6837 18.36 47.0357 18.4133 47.3344 18.52C47.633 18.6267 47.8837 18.7547 48.0864 18.904C48.289 19.0427 48.4437 19.1813 48.5504 19.32C48.6677 19.4587 48.7424 19.5547 48.7744 19.608H48.9024V18.52H51.3344V27H48.9024V25.912H48.7744C48.7424 25.9653 48.6677 26.0613 48.5504 26.2C48.4437 26.3387 48.289 26.4827 48.0864 26.632C47.8837 26.7707 47.633 26.8933 47.3344 27C47.0357 27.1067 46.6837 27.16 46.2784 27.16C45.649 27.16 45.0997 27.0373 44.6304 26.792C44.1717 26.536 43.7877 26.2 43.4784 25.784C43.169 25.3573 42.9344 24.8827 42.7744 24.36C42.625 23.8373 42.5504 23.304 42.5504 22.76C42.5504 22.216 42.625 21.6827 42.7744 21.16C42.9344 20.6373 43.169 20.168 43.4784 19.752C43.7877 19.3253 44.1717 18.9893 44.6304 18.744C45.0997 18.488 45.649 18.36 46.2784 18.36ZM46.9824 20.328C46.545 20.328 46.177 20.4507 45.8784 20.696C45.5904 20.9307 45.3717 21.2347 45.2224 21.608C45.0837 21.9707 45.0144 22.3547 45.0144 22.76C45.0144 23.1547 45.0837 23.5387 45.2224 23.912C45.3717 24.2853 45.5904 24.5947 45.8784 24.84C46.177 25.0747 46.545 25.192 46.9824 25.192C47.4197 25.192 47.7824 25.0747 48.0704 24.84C48.369 24.5947 48.5877 24.2853 48.7264 23.912C48.8757 23.5387 48.9504 23.1547 48.9504 22.76C48.9504 22.3547 48.8757 21.9707 48.7264 21.608C48.5877 21.2347 48.369 20.9307 48.0704 20.696C47.7824 20.4507 47.4197 20.328 46.9824 20.328ZM58.4565 27.16C58.0512 27.16 57.6938 27.1067 57.3845 27C57.0858 26.8933 56.8352 26.7707 56.6325 26.632C56.4405 26.4827 56.2858 26.3387 56.1685 26.2C56.0618 26.0613 55.9872 25.9653 55.9445 25.912H55.8325V27H53.4005V14.84H55.8325V19.608H55.9445C55.9872 19.5547 56.0618 19.4587 56.1685 19.32C56.2858 19.1813 56.4405 19.0427 56.6325 18.904C56.8352 18.7547 57.0858 18.6267 57.3845 18.52C57.6938 18.4133 58.0512 18.36 58.4565 18.36C59.0858 18.36 59.6298 18.488 60.0885 18.744C60.5578 18.9893 60.9472 19.3253 61.2565 19.752C61.5658 20.168 61.7952 20.6373 61.9445 21.16C62.1045 21.6827 62.1845 22.216 62.1845 22.76C62.1845 23.304 62.1045 23.8373 61.9445 24.36C61.7952 24.8827 61.5658 25.3573 61.2565 25.784C60.9472 26.2 60.5578 26.536 60.0885 26.792C59.6298 27.0373 59.0858 27.16 58.4565 27.16ZM57.7525 25.192C58.2005 25.192 58.5685 25.0747 58.8565 24.84C59.1445 24.5947 59.3578 24.2853 59.4965 23.912C59.6458 23.5387 59.7205 23.1547 59.7205 22.76C59.7205 22.3547 59.6458 21.9707 59.4965 21.608C59.3578 21.2347 59.1445 20.9307 58.8565 20.696C58.5685 20.4507 58.2005 20.328 57.7525 20.328C57.3152 20.328 56.9472 20.4507 56.6485 20.696C56.3605 20.9307 56.1418 21.2347 55.9925 21.608C55.8538 21.9707 55.7845 22.3547 55.7845 22.76C55.7845 23.1547 55.8538 23.5387 55.9925 23.912C56.1418 24.2853 56.3605 24.5947 56.6485 24.84C56.9472 25.0747 57.3152 25.192 57.7525 25.192ZM66.4263 27H63.9943V14.84H66.4263V27ZM72.5739 27.16C71.8272 27.16 71.1819 27.0373 70.6379 26.792C70.0939 26.5467 69.6405 26.2107 69.2779 25.784C68.9259 25.3573 68.6645 24.8827 68.4939 24.36C68.3232 23.8373 68.2379 23.2987 68.2379 22.744C68.2379 22.2107 68.3179 21.6827 68.4779 21.16C68.6485 20.6373 68.9099 20.168 69.2619 19.752C69.6139 19.3253 70.0565 18.9893 70.5899 18.744C71.1232 18.488 71.7579 18.36 72.4939 18.36C73.2832 18.36 73.9765 18.5307 74.5739 18.872C75.1712 19.2133 75.6405 19.7147 75.9819 20.376C76.3232 21.0373 76.4939 21.848 76.4939 22.808V23.4H70.6859C70.7072 23.7413 70.7925 24.056 70.9419 24.344C71.0912 24.632 71.3045 24.8613 71.5819 25.032C71.8592 25.2027 72.1899 25.288 72.5739 25.288C72.9045 25.288 73.1712 25.24 73.3739 25.144C73.5872 25.0373 73.7525 24.92 73.8699 24.792C73.9872 24.6533 74.0672 24.5307 74.1099 24.424C74.1525 24.3173 74.1739 24.264 74.1739 24.264H76.4139C76.4139 24.264 76.3872 24.3653 76.3339 24.568C76.2805 24.76 76.1792 25 76.0299 25.288C75.8912 25.5653 75.6779 25.848 75.3899 26.136C75.1125 26.424 74.7445 26.6693 74.2859 26.872C73.8272 27.064 73.2565 27.16 72.5739 27.16ZM70.6859 21.928H74.1579C74.1365 21.5333 74.0512 21.208 73.9019 20.952C73.7525 20.696 73.5499 20.504 73.2939 20.376C73.0379 20.248 72.7552 20.184 72.4459 20.184C71.9765 20.184 71.5765 20.3333 71.2459 20.632C70.9152 20.9307 70.7285 21.3627 70.6859 21.928Z" fill="#0057FF"/>
</svg>
