<svg width="19" height="15" viewBox="0 0 19 15" fill="none" xmlns="http://www.w3.org/2000/svg">
<path fill-rule="evenodd" clip-rule="evenodd" d="M0 1.40625C0 0.6296 0.531662 0 1.1875 0H17.8125C18.4683 0 19 0.6296 19 1.40625C19 2.1829 18.4683 2.8125 17.8125 2.8125H1.1875C0.531662 2.8125 0 2.1829 0 1.40625ZM0 7.5C0 6.72335 0.531662 6.09375 1.1875 6.09375H17.8125C18.4683 6.09375 19 6.72335 19 7.5C19 8.27665 18.4683 8.90625 17.8125 8.90625H1.1875C0.531662 8.90625 0 8.27665 0 7.5ZM0 13.5938C0 12.8171 0.531662 12.1875 1.1875 12.1875H17.8125C18.4683 12.1875 19 12.8171 19 13.5938C19 14.3704 18.4683 15 17.8125 15H1.1875C0.531662 15 0 14.3704 0 13.5938Z" fill="black"/>
</svg>
