<svg width="417" height="334" viewBox="0 0 417 334" fill="none" xmlns="http://www.w3.org/2000/svg">
<path d="M26.16 102H0.56L32.048 7.28H65.2L96.688 102H71.088L66.096 86.128H31.152L26.16 102ZM48.688 30.192L37.68 65.136H59.568L48.688 30.192ZM233 102H208.68V4.71999H233V102ZM313.25 102H288.93V7.28H322.21L343.33 59.504H335.906L358.306 7.28H390.306V102H365.986V40.176L368.162 40.432L350.882 81.264H328.354L311.202 40.432L313.25 40.176V102ZM240.778 179.112H177.93V158.888H240.778V179.112ZM246.538 143.528H177.93V122.28H246.538V143.528ZM247.178 217H177.93V195.752H247.178V217ZM202.506 217H177.93V122.28H202.506V217ZM416.928 217H347.68V195.752H416.928V217ZM372.256 217H347.68V122.28H372.256V217ZM203.179 301.408H178.731V280.16H203.051C205.696 280.16 207.872 279.648 209.579 278.624C211.286 277.515 212.566 276.149 213.419 274.528C214.272 272.907 214.699 271.2 214.699 269.408C214.699 267.616 214.272 265.909 213.419 264.288C212.566 262.581 211.286 261.216 209.579 260.192C207.872 259.168 205.696 258.656 203.051 258.656H178.731V237.28H203.179C211.286 237.28 218.027 238.859 223.403 242.016C228.779 245.088 232.79 249.056 235.435 253.92C238.166 258.784 239.531 263.904 239.531 269.28C239.531 274.656 238.166 279.819 235.435 284.768C232.79 289.632 228.779 293.643 223.403 296.8C218.027 299.872 211.286 301.408 203.179 301.408ZM185.131 332H160.555V237.28H185.131V332Z" fill="#1E2E4F"/>
<path d="M152.242 103.28C144.05 103.28 136.882 101.915 130.738 99.184C124.594 96.4533 119.474 92.784 115.378 88.176C111.282 83.568 108.21 78.3627 106.162 72.56C104.114 66.7573 103.09 60.8267 103.09 54.768C103.09 48.7093 104.114 42.7787 106.162 36.976C108.295 31.1733 111.41 25.968 115.506 21.36C119.687 16.6667 124.893 12.9547 131.122 10.224C137.351 7.40799 144.605 5.99999 152.882 5.99999C159.453 5.99999 165.085 6.81066 169.778 8.432C174.557 10.0533 178.525 12.1867 181.682 14.832C184.839 17.392 187.357 20.1227 189.234 23.024C191.197 25.9253 192.647 28.6987 193.586 31.344C194.61 33.904 195.293 35.9947 195.634 37.616C195.975 39.2373 196.146 40.048 196.146 40.048H171.826C171.826 40.048 171.655 39.6213 171.314 38.768C171.058 37.9147 170.546 36.8907 169.778 35.696C169.095 34.416 168.029 33.1787 166.578 31.984C165.127 30.704 163.293 29.6373 161.074 28.784C158.855 27.9307 156.125 27.504 152.882 27.504C148.786 27.504 145.202 28.272 142.13 29.808C139.143 31.344 136.626 33.392 134.578 35.952C132.53 38.512 130.994 41.4133 129.97 44.656C128.946 47.8133 128.434 51.056 128.434 54.384C128.434 57.7973 128.946 61.168 129.97 64.496C131.079 67.7387 132.658 70.6827 134.706 73.328C136.839 75.888 139.442 77.9787 142.514 79.6C145.671 81.136 149.298 81.904 153.394 81.904C157.746 81.904 161.373 81.0933 164.274 79.472C167.261 77.8507 169.479 75.632 170.93 72.816C172.466 69.9147 173.234 66.6293 173.234 62.96V61.936L179.122 68.592H150.45V49.648H197.042V57.456C197.042 67.44 195.122 75.8453 191.282 82.672C187.442 89.4987 182.151 94.6613 175.41 98.16C168.754 101.573 161.031 103.28 152.242 103.28ZM30 241.96H5.68V149.16H30V156.584H31.024C31.024 156.584 31.3653 156.157 32.048 155.304C32.816 154.365 33.9253 153.341 35.376 152.232C36.912 151.123 38.8747 150.141 41.264 149.288C43.6533 148.349 46.512 147.88 49.84 147.88C54.7893 147.88 59.056 148.904 62.64 150.952C66.3093 152.915 69.3387 155.603 71.728 159.016C74.2027 162.344 76.0373 166.099 77.232 170.28C78.4267 174.461 79.024 178.728 79.024 183.08C79.024 187.432 78.4267 191.699 77.232 195.88C76.0373 200.061 74.2027 203.859 71.728 207.272C69.3387 210.6 66.3093 213.288 62.64 215.336C59.056 217.299 54.7893 218.28 49.84 218.28C46.512 218.28 43.6533 217.853 41.264 217C38.8747 216.061 36.912 215.037 35.376 213.928C33.9253 212.819 32.816 211.837 32.048 210.984C31.3653 210.045 31.024 209.576 31.024 209.576H30V241.96ZM29.104 183.08C29.104 185.64 29.5733 188.157 30.512 190.632C31.4507 193.021 32.8587 195.027 34.736 196.648C36.6133 198.184 38.96 198.952 41.776 198.952C44.6773 198.952 47.024 198.184 48.816 196.648C50.6933 195.027 52.1013 193.021 53.04 190.632C53.9787 188.157 54.448 185.64 54.448 183.08C54.448 180.52 53.9787 178.045 53.04 175.656C52.1013 173.181 50.6933 171.176 48.816 169.64C47.024 168.019 44.6773 167.208 41.776 167.208C38.96 167.208 36.6133 168.019 34.736 169.64C32.8587 171.176 31.4507 173.181 30.512 175.656C29.5733 178.045 29.104 180.52 29.104 183.08ZM296.874 244.392C290.218 244.392 284.714 243.581 280.362 241.96C276.095 240.339 272.725 238.333 270.25 235.944C267.861 233.64 266.111 231.293 265.002 228.904C263.893 226.515 263.167 224.509 262.826 222.888C262.57 221.267 262.442 220.456 262.442 220.456H285.866C285.866 220.456 285.951 220.627 286.122 220.968C286.293 221.395 286.549 221.864 286.89 222.376C287.317 222.973 287.914 223.528 288.682 224.04C289.535 224.637 290.559 225.107 291.754 225.448C293.034 225.875 294.613 226.088 296.49 226.088C298.453 226.088 300.202 225.789 301.738 225.192C303.359 224.68 304.725 223.827 305.834 222.632C306.943 221.523 307.797 220.115 308.394 218.408C308.991 216.701 309.29 214.696 309.29 212.392V205.48H308.266C307.669 206.504 306.815 207.571 305.706 208.68C304.597 209.789 303.274 210.813 301.738 211.752C300.202 212.691 298.41 213.459 296.362 214.056C294.399 214.653 292.181 214.952 289.706 214.952C284.757 214.952 280.405 214.013 276.65 212.136C272.981 210.259 269.909 207.741 267.434 204.584C264.959 201.341 263.082 197.715 261.802 193.704C260.607 189.693 260.01 185.597 260.01 181.416C260.01 177.235 260.607 173.139 261.802 169.128C263.082 165.117 264.959 161.533 267.434 158.376C269.909 155.133 272.981 152.573 276.65 150.696C280.405 148.819 284.757 147.88 289.706 147.88C292.181 147.88 294.442 148.179 296.49 148.776C298.538 149.373 300.33 150.141 301.866 151.08C303.402 152.019 304.682 153.043 305.706 154.152C306.815 155.261 307.669 156.328 308.266 157.352H309.29V149.16H333.61V212.392C333.61 216.317 332.885 220.157 331.434 223.912C330.069 227.752 327.893 231.208 324.906 234.28C322.005 237.352 318.207 239.784 313.514 241.576C308.906 243.453 303.359 244.392 296.874 244.392ZM297.258 196.264C300.159 196.264 302.549 195.539 304.426 194.088C306.389 192.637 307.839 190.76 308.778 188.456C309.717 186.152 310.186 183.805 310.186 181.416C310.186 178.856 309.717 176.467 308.778 174.248C307.839 171.944 306.389 170.109 304.426 168.744C302.549 167.293 300.159 166.568 297.258 166.568C294.442 166.568 292.053 167.293 290.09 168.744C288.213 170.109 286.762 171.944 285.738 174.248C284.799 176.467 284.33 178.856 284.33 181.416C284.33 183.805 284.799 186.152 285.738 188.456C286.762 190.76 288.213 192.637 290.09 194.088C292.053 195.539 294.442 196.264 297.258 196.264ZM30.256 332H5.68V237.28H30.256V332Z" fill="#0057FF"/>
<path d="M273.009 102H248.689V34.16H273.009V102ZM260.849 27.376C256.838 27.376 253.51 26.096 250.865 23.536C248.305 20.8907 247.025 17.776 247.025 14.192C247.025 10.4373 248.305 7.28 250.865 4.71999C253.51 2.16 256.838 0.879997 260.849 0.879997C264.86 0.879997 268.188 2.16 270.833 4.71999C273.478 7.28 274.801 10.4373 274.801 14.192C274.801 17.776 273.478 20.8907 270.833 23.536C268.188 26.096 264.86 27.376 260.849 27.376ZM119.694 147.88C123.022 147.88 125.881 148.349 128.27 149.288C130.659 150.141 132.579 151.123 134.03 152.232C135.566 153.341 136.675 154.365 137.358 155.304C138.126 156.157 138.51 156.584 138.51 156.584H139.534V149.16H163.854V217H139.534V209.576H138.51C138.51 209.576 138.126 210.045 137.358 210.984C136.675 211.837 135.566 212.819 134.03 213.928C132.579 215.037 130.659 216.061 128.27 217C125.881 217.853 123.022 218.28 119.694 218.28C114.745 218.28 110.435 217.299 106.766 215.336C103.182 213.288 100.153 210.6 97.678 207.272C95.2887 203.859 93.4967 200.061 92.302 195.88C91.1073 191.699 90.51 187.432 90.51 183.08C90.51 178.728 91.1073 174.461 92.302 170.28C93.4967 166.099 95.2887 162.344 97.678 159.016C100.153 155.603 103.182 152.915 106.766 150.952C110.435 148.904 114.745 147.88 119.694 147.88ZM127.758 167.208C124.942 167.208 122.595 168.019 120.718 169.64C118.841 171.176 117.433 173.181 116.494 175.656C115.555 178.045 115.086 180.52 115.086 183.08C115.086 185.64 115.555 188.157 116.494 190.632C117.433 193.021 118.841 195.027 120.718 196.648C122.595 198.184 124.942 198.952 127.758 198.952C130.574 198.952 132.921 198.184 134.798 196.648C136.675 195.027 138.083 193.021 139.022 190.632C139.961 188.157 140.43 185.64 140.43 183.08C140.43 180.52 139.961 178.045 139.022 175.656C138.083 173.181 136.675 171.176 134.798 169.64C132.921 168.019 130.574 167.208 127.758 167.208ZM68.595 332H44.275V264.16H68.595V272.992H69.363C70.4723 271.029 71.8803 269.323 73.587 267.872C75.2937 266.336 77.299 265.141 79.603 264.288C81.9923 263.349 84.6803 262.88 87.667 262.88C92.6163 262.88 96.5417 263.947 99.443 266.08C102.344 268.213 104.392 270.859 105.587 274.016C106.867 277.173 107.507 280.245 107.507 283.232V332H83.187V290.528C83.187 288.309 82.5897 286.432 81.395 284.896C80.2003 283.275 78.323 282.464 75.763 282.464C74.1417 282.464 72.7763 282.848 71.667 283.616C70.643 284.299 69.875 285.237 69.363 286.432C68.851 287.627 68.595 288.992 68.595 290.528V332ZM107.507 332H83.187V274.656H106.355C107.379 273.035 108.787 271.328 110.579 269.536C112.371 267.659 114.632 266.08 117.363 264.8C120.094 263.52 123.336 262.88 127.091 262.88C131.699 262.88 135.411 263.904 138.227 265.952C141.043 268 143.091 270.56 144.371 273.632C145.736 276.619 146.419 279.648 146.419 282.72V332H122.099V290.528C122.099 288.309 121.502 286.432 120.307 284.896C119.112 283.275 117.235 282.464 114.675 282.464C113.054 282.464 111.688 282.848 110.579 283.616C109.555 284.299 108.787 285.237 108.275 286.432C107.763 287.627 107.507 288.992 107.507 290.528V332ZM277.694 262.88C281.022 262.88 283.881 263.349 286.27 264.288C288.659 265.141 290.579 266.123 292.03 267.232C293.566 268.341 294.675 269.365 295.358 270.304C296.126 271.157 296.51 271.584 296.51 271.584H297.534V264.16H321.854V332H297.534V324.576H296.51C296.51 324.576 296.126 325.045 295.358 325.984C294.675 326.837 293.566 327.819 292.03 328.928C290.579 330.037 288.659 331.061 286.27 332C283.881 332.853 281.022 333.28 277.694 333.28C272.745 333.28 268.435 332.299 264.766 330.336C261.182 328.288 258.153 325.6 255.678 322.272C253.289 318.859 251.497 315.061 250.302 310.88C249.107 306.699 248.51 302.432 248.51 298.08C248.51 293.728 249.107 289.461 250.302 285.28C251.497 281.099 253.289 277.344 255.678 274.016C258.153 270.603 261.182 267.915 264.766 265.952C268.435 263.904 272.745 262.88 277.694 262.88ZM285.758 282.208C282.942 282.208 280.595 283.019 278.718 284.64C276.841 286.176 275.433 288.181 274.494 290.656C273.555 293.045 273.086 295.52 273.086 298.08C273.086 300.64 273.555 303.157 274.494 305.632C275.433 308.021 276.841 310.027 278.718 311.648C280.595 313.184 282.942 313.952 285.758 313.952C288.574 313.952 290.921 313.184 292.798 311.648C294.675 310.027 296.083 308.021 297.022 305.632C297.961 303.157 298.43 300.64 298.43 298.08C298.43 295.52 297.961 293.045 297.022 290.656C296.083 288.181 294.675 286.176 292.798 284.64C290.921 283.019 288.574 282.208 285.758 282.208Z" fill="#1E2E4F" fill-opacity="0.5"/>
</svg>
